<?xml version="1.0" standalone="no"?><!DOCTYPE svg PUBLIC "-//W3C//DTD SVG 1.1//EN" "http://www.w3.org/Graphics/SVG/1.1/DTD/svg11.dtd"><svg t="1600696452477" class="icon" viewBox="0 0 1024 1024" version="1.1" xmlns="http://www.w3.org/2000/svg" p-id="17869" width="128" height="128" xmlns:xlink="http://www.w3.org/1999/xlink"><defs><style type="text/css"></style></defs><path d="M923.81198 806c-79.3 63.7-171.6 109.1-270.3 133.2-26.9 9.7-55 15.6-83.5 17.5h-3.1c86.6 1.2 208.2-105 255.3-182.9 17.6-26.6 24.5-58.9 19.5-90.4-13.6 19.1-28.4 37.2-44.5 54.2-104.1 110.1-248.4 165-379.7 205.5-33.2 12-67.6 20.5-102.6 25.4 127.8-17.1 268.9-168.2 316.3-280.8 16.6-37.7 20.5-79.8 11.3-120-12.2 27.1-26.9 53.1-43.7 77.5-102.7 149.6-279.5 223.6-443.3 279.2-42 16.4-85.7 28-130.3 34.6 167.4-23.4 306.1-228.6 330.9-381.4 31.2-191.4-165.2-381.3-354.8-289.9 127.5-365.7 560.2-251.4 656.4 18.1 136-17.2 258.7 79.2 248 219.6 118.4 0.7 184.9 132.7 18.1 280.6zM0.11198 288.3c0.4 0 0.9-0.3 1.4-0.6 0 0.4-0.3 0.7-0.4 1.1-1 2.2-1.3 2-1-0.5z" p-id="17870" fill="#000000"></path></svg>